# xmcd
#
# Track frame offsets:
#	150
#	10479
#	22796
#	34537
#	42795
#	52094
#	62727
#	69612
#	79932
#	90917
#	103660
#	114445
#	128882
#	140919
#	154406
#	166413
#	178622
#	191511
#	204912
#	212149
#	222830
#	233235
#	242926
#	255339
#	263546
#	275175
#	284714
#	293150
#	303857
#	320237
#	328974
#
# Disc length: 4539 seconds
#
# Revision: 2
# Processed by: cddbd v1.5.2PL0 Copyright (c) Steve Scherf et al.
# Submitted via: EZCDDA 4.3.2
#
DISCID=d511b91f
DTITLE=Marcel Budala - Marcel Budala - acordeon vol.1
DYEAR=1900
DGENRE=
TTITLE0=Sarba de la Campulung
TTITLE1=Hora Bucurestilor
TTITLE2=Geampara
TTITLE3=Cantec din Bailesti
TTITLE4=Sarba de la Trestiana
TTITLE5=Hora rudarenilor
TTITLE6=Am o mama bolnavicioasa
TTITLE7=Geamparalele din Bucuresti
TTITLE8=Sarba de la Domnesti
TTITLE9=Hora de la crama
TTITLE10=Sarba lautareasca
TTITLE11=Copilul strain
TTITLE12=Hora de la Savinesti
TTITLE13=Sarba de la Odobesti
TTITLE14=La cules de vii
TTITLE15=Sarba de la Podul Iloaiei
TTITLE16=Hora de la Lupeni
TTITLE17=Ca la Breaza
TTITLE18=Hora Moldoveneasca
TTITLE19=Canta cucul de trei zile
TTITLE20=Geamparalele de la Murfatlar
TTITLE21=Hora
TTITLE22=Hora nuntasilor
TTITLE23=Brauletul
TTITLE24=Hora lautaresca
TTITLE25=Sarba lui Marcel Budala
TTITLE26=Jocul ciocanelelor
TTITLE27=Hora "Cucu" din Moldova
TTITLE28=Geamparalele de la Tropaisar
TTITLE29=Hora lui Marin (Budala)
TTITLE30=Ciubotica
EXTD=
EXTT0=
EXTT1=
EXTT2=
EXTT3=
EXTT4=
EXTT5=
EXTT6=
EXTT7=
EXTT8=
EXTT9=
EXTT10=
EXTT11=
EXTT12=
EXTT13=
EXTT14=
EXTT15=
EXTT16=
EXTT17=
EXTT18=
EXTT19=
EXTT20=
EXTT21=
EXTT22=
EXTT23=
EXTT24=
EXTT25=
EXTT26=
EXTT27=
EXTT28=
EXTT29=
EXTT30=
PLAYORDER=
